<svg xmlns="http://www.w3.org/2000/svg" xmlns:xlink="http://www.w3.org/1999/xlink" viewBox="0 0 400 300"><defs><linearGradient id="linear-gradient" x1="254.88" y1="105.13" x2="162.31" y2="217.52" gradientUnits="userSpaceOnUse"><stop offset="0" stop-color="#8c6239"/><stop offset="1" stop-color="#fff"/></linearGradient><linearGradient id="linear-gradient-2" x1="156.2" y1="155.73" x2="123.37" y2="195.59" xlink:href="#linear-gradient"/><linearGradient id="linear-gradient-3" x1="269.6" y1="215.4" x2="238.85" y2="252.74" xlink:href="#linear-gradient"/><linearGradient id="linear-gradient-4" x1="235.9" y1="86.85" x2="212.81" y2="114.88" xlink:href="#linear-gradient"/></defs><title>121-130</title><g style="isolation:isolate"><g id="Layer_2" data-name="Layer 2"><polygon points="67.31 190.63 219.79 278.66 343.85 206.12 192.54 118.52 67.31 190.63" fill="#f4e4d9"/><path d="M191.16,141.17c-13.83,8.68-84.34,54-99.85,62.55a.44.44,0,0,0,0,.77l72.17,41.67a.45.45,0,0,0,.42,0l111.6-66c-.76-11,.33.16,0,0-10.79-5.36-76.48-32.45-83.81-38.92A.44.44,0,0,0,191.16,141.17Z" fill="url(#linear-gradient)" style="mix-blend-mode:multiply"/><path d="M147.09,167.16c-13.32,8.35-33.08,17.74-47.15,25.26l21.66,16.54,40.3-28.51C154.23,176.77,153.11,173.11,147.09,167.16Z" fill="url(#linear-gradient-2)" style="mix-blend-mode:multiply"/><path d="M257.82,231.28c-13.32,8.35-28.17,9.87-42.24,17.38l21.66,16.54L276.76,239C269.09,235.37,263.84,237.24,257.82,231.28Z" fill="url(#linear-gradient-3)" style="mix-blend-mode:multiply"/><polyline points="181.44 48.69 178.85 36.61 195.42 33.41 200.34 58.35 183.08 61.72" fill="#206d99"/><polygon points="190.34 40.1 189.59 36.59 194.41 35.66 195.84 42.91 191.16 43.82 190.34 40.1" fill="#fff"/><circle cx="185.2" cy="42.31" r="3.53" fill="#fff"/><path d="M175.94,57.16s.84-5.11,1.19-6.49,2.57-3.83,3.65-4.75c1.27-1.08,4.34-2.86,4.43-1.74s-3.1,4.42-3.1,4.42,1,5.21.35,7.71a11.57,11.57,0,0,1-2,4" fill="#ffac99"/><path d="M174.58,56.8c-2.47,2.88-6.66,9-6.66,9A99.8,99.8,0,0,1,161.73,52c-2.09-6.32-7.16-6.4-7.16-6.4L158.08,74a9.4,9.4,0,0,0,11.27,3c6-2.26,11.65-12.49,12.75-17.2A26.44,26.44,0,0,0,174.58,56.8Z" fill="#ffc36c"/><path d="M147.66,188.17c-.71-1.82-2.48-3.37-3.76-4.78a10.31,10.31,0,0,1-3-5.22c-.24-1,1.08-14.08,1.38-14-3.26-.69-8.22-2.12-9.88-5.07-1.33,6.24-4.08,20.4-3.66,21.18.53,1,3.24,2.52,3.24,2.52l.9-7.73.23,7.58a4.69,4.69,0,0,0,1,1.73,9.4,9.4,0,0,0,2.59,1.72,26.7,26.7,0,0,0,5.51,2.69c1.37.42,4.63,1.23,5.5-.44Z" fill="#3129a3"/><path d="M161.84,180.27c-.71-1.82-2.48-3.37-3.76-4.78a10.31,10.31,0,0,1-3-5.22c-.24-1,1.08-14.08,1.38-14-3.26-.69-8.22-2.12-9.88-5.07-1.33,6.24-4.08,20.4-3.66,21.18.53,1,3.24,2.52,3.24,2.52l.9-7.73.23,7.58a4.69,4.69,0,0,0,1,1.73,9.4,9.4,0,0,0,2.59,1.72,26.7,26.7,0,0,0,5.51,2.69c1.37.42,4.63,1.23,5.5-.44Z" fill="#3129a3"/><path d="M159.63,85.17c-11.49-1.1-14.3-3.17-15.18,6.28,3.71,1.41,2.78,36.82,2.78,36.82-2.34,9.65-4.2,24-4.21,24.1-.78,6.05,13.79,15.26,16.11,6.8,1.64-11.11,2.65-22.34,3.69-33.5.51-5.44.82-10.89.87-16.34C162.78,101.18,161,93.29,159.63,85.17Z" fill="#d86044"/><path d="M154.45,92.38c.16-3.87-3.6-5-6.79-5.16a33.66,33.66,0,0,0-7.08.49c-1.25.19-2.51.27-3.76.49a7.63,7.63,0,0,0-2.07.51c-1.1.56-.81,2.1-.8,3.14,0,2,.12,4,.18,6.05.13,4.56.31,9.12.39,13.68s-.18,9.27-.18,13.91c-.35,5.69-1.51,11.26-2.11,16.92q-1.09,10.38-1.7,20.8a14.14,14.14,0,0,0,8.3,4,11.94,11.94,0,0,0,6.57-.74c3.28-10.39,7.43-36.25,9-47.82C156.12,106.68,154.45,92.38,154.45,92.38Z" fill="#ea7554"/><path d="M160.42,62.62c-.3-8.22-.61-20.29-12.12-17.58a1.4,1.4,0,0,1-.74,0,24.05,24.05,0,0,0-9.17,6.83c-5.57,7.08-4.52,38.58-4.52,38.58a31,31,0,0,0,26.52-2.29C160.5,79.64,160.74,71.13,160.42,62.62Z" fill="#ffc36c"/><path d="M148.75,101.35a45.39,45.39,0,0,0,6.92-5.14c-2.15-5.59-9.47-22-10.52-28.87-1.29-8.38-.65-11.83-.51-12.29l-11.39-.26c-6,22.7,7.26,41.43,12.38,48.39C146,102.92,148.38,101.6,148.75,101.35Z" fill="#ffc36c"/><path d="M271.45,117.93l-2.66,2.76a5,5,0,0,1-1.64,2.82c-.39.36-.79.7-1.18,1l8.63,58.28a3.2,3.2,0,1,0,6.32-.94Z" fill="#311e69"/><path d="M127.53,118.4l-19.61,71.11a3.2,3.2,0,0,0,6.16,1.7l21.31-77.28A41.8,41.8,0,0,1,127.53,118.4Z" fill="#311e69"/><rect x="186.95" y="125.72" width="6.39" height="110.14" rx="2.66" ry="2.66" transform="translate(14.98 -14.55) rotate(4.56)" fill="#311e69"/><path d="M289.34,121.15,212.5,76.66a11.35,11.35,0,0,0-11.35,0L111,128.55a5.34,5.34,0,0,0-1.41,1.18l-1.24-1.24v4.22a5.44,5.44,0,0,0,0,.93v0h0a5.26,5.26,0,0,0,2.64,4.12l86.09,49.7a11.35,11.35,0,0,0,11.35,0l80.87-46.69A11.35,11.35,0,0,0,289.34,121.15Z" fill="#206d99"/><path d="M289.34,121.15,212.5,76.66a11.35,11.35,0,0,0-11.35,0L111,128.55a5.34,5.34,0,0,0-1.41,1.18l-1.24-1.24v4.22a5.44,5.44,0,0,0,0,.93v0h0a5.26,5.26,0,0,0,2.64,4.12l86.09,49.7a11.35,11.35,0,0,0,11.35,0l80.87-46.69A11.35,11.35,0,0,0,289.34,121.15Z" fill="#606060" opacity="0.36"/><path d="M111,133.57l86.09,49.7a11.35,11.35,0,0,0,11.35,0l80.87-46.69a11.35,11.35,0,0,0,0-19.65L212.5,72.45a11.35,11.35,0,0,0-11.35,0L111,124.33A5.33,5.33,0,0,0,111,133.57Z" fill="#206d99"/><polygon points="243.73 146.06 218.12 131.46 235.71 121.28 260.85 136.26 243.73 146.06" fill="#fff"/><polygon points="130.3 125.15 161.19 142.83 219.99 108.75 189.31 91.08 130.3 125.15" fill="#fff"/><path d="M248.73,109.58s2.9-.51,3.6-1.46,0-1.48,0-1.48,2.85-1.35,2.42-2.29-2.83-3.26-4.37-3.26-6.52,5.06-6.52,5.06" fill="#eead97"/><path d="M245.15,238.31a1.1,1.1,0,0,1-1.12,1c-1,.08-10.62-4.05-13,1.55a1.59,1.59,0,0,0,.63,1.94,38,38,0,0,0,15.8,5.74,8.89,8.89,0,0,0,5.69-.72l-.45-10.56Z" fill="#c24327"/><path d="M268.37,233.42s-9-5.86-10.55-2.14c-1.21,2.87,9.53,11.22,13.48,11.88s4.49-3.49,4.49-3.49l-.13-6.81" fill="#c24327"/><path d="M250.78,148.12s-9,19.38-8.84,89.38c0,0,1.83,4.84,14.83,1.51l5.28-62.51,2.28,57.68s6.11,4.53,15.6-.91c0,0-2.13-77.17-7.32-91" fill="#328e99"/><path d="M273,144.59c2.25-9.53,6.89-34.14,1.92-37.89-4.33-3.27-14.42.28-22.13,5.49-6.32,4.27-3.74,29.14-2.65,37.77C258.56,151,266.37,149.53,273,144.59Z" fill="#c24327"/><path d="M274.81,106.64s3.16,1.56,4.39,7,3.3,19.28.05,23-8.82-2-9.23-2.39" fill="#c24327"/><path d="M256.54,110s-11.69,6.08-12.07,6.21,5.51-4.51,5.51-4.51-.67-8.21-6.77-6.28c0,0-19.65,15.09-8.71,24.56,5.23,4.52,22-2.67,22-2.67" fill="#c24327"/><path d="M254.13,92.79s-.22,12.65,3.31,13a6.5,6.5,0,0,0,6.91-3.6" fill="#eead97"/><path d="M259.24,104.17v6s3.23,1.24,7.75-1.77v-4.91" fill="#eead97"/><path d="M254.77,95.13s-4.3-4.47-1.49-8.28,6-1.82,6-1.82.66-1.66,4-2,4.63,3,6,3.81,3.48,3.26,3.64,5.27-2.81,13.26-6.29,14.09S258.58,108.37,254.77,95.13Z" fill="#c24327"/><polygon points="196.86 161.4 215.58 150.59 211.22 130.72 191.45 140.99 196.86 161.4" fill="#fff"/><polygon points="191.45 140.99 186.05 155.75 196.86 161.4 191.45 140.99" fill="#77689b"/><path d="M168.38,108.29c-.2-1.49-7.19-3.19-7.19-3.19s4.82.41,4.24-1.17-6.35-.52-7.63-1.47c-1-.72-2.41-4.42-3-6.24-1.87,1.56-3.76,3.08-5.7,4.54,1.08,2.45,2.46,5.65,2.78,6.65.54,1.7,8,5.57,8.88,5.84,2.08.62,1.56-1,1.56-1s2.22,1.43,2.91,1c1.21-.71-.12-2-.12-2s1.7,1.15,2.76.12-1.52-2-1.52-2S168.58,109.78,168.38,108.29Z" fill="#ffac99"/><path d="M155,32s3.54,14.19-2.25,16.32c-4.87,1.79-8.56-3.36-9.39-6.6-1-3.81,1.82-8.68,4.67-11.28C150.57,28.12,154.1,28.18,155,32Z" fill="#ffac99"/><path d="M147.72,39s0-2.82.53-2.35-.4,2.46,1.18,2.54,5.92.07,8.35-3c1.5-1.9-.77-8.91-6.18-10-4.06-.81-8-.09-10.68,3.05a16.88,16.88,0,0,0-3.48,8.39c-.71,4.3-.87,8.27-4.56,11.16-1.61,1.26-3.57,3-2.84,5.24a6.21,6.21,0,0,0,3.44,3.5c1.6.67,3.61,1,3.66,3.15.08,3.63,5.12,7.55,10.34,4.48s4.26-8.83.78-11.29S144.69,42,147.72,39Z" fill="#d86044"/><path d="M146.86,41.68s0-2.36-1.47-2-.94,3.46.73,4.4" fill="#ffac99"/><path d="M137.35,89.62a59.76,59.76,0,0,1-3.46-8.81s0,4-.06,6.15A30,30,0,0,0,137.35,89.62Z" fill="#e09b41"/><path d="M146.39,72.29S151,86,153.34,91.08l1.24-.3S147.15,75,146.39,72.29Z" fill="#e09b41"/><path d="M159.56,62.11s1.59,14.57.83,26c0,0-1.1-12.61-1.1-14.22S159.56,62.11,159.56,62.11Z" fill="#e09b41"/><polygon points="192.02 48.99 191.27 45.48 196.08 44.55 197.51 51.8 192.83 52.72 192.02 48.99" fill="#fff"/><line x1="183.61" y1="48.03" x2="189.76" y2="46.74" fill="#fff"/><path d="M183.71,48.4l6.15-1.3c.47-.1.27-.82-.2-.72l-6.15,1.3c-.47.1-.27.82.2.72Z" fill="#f2f2f2"/><line x1="183.83" y1="49.93" x2="189.97" y2="48.63" fill="#fff"/><path d="M183.92,50.29l6.15-1.3c.47-.1.27-.82-.2-.72l-6.15,1.3c-.47.1-.27.82.2.72Z" fill="#f2f2f2"/><line x1="184.8" y1="54.16" x2="190.95" y2="52.86" fill="#fff"/><path d="M184.9,54.52l6.15-1.3c.47-.1.27-.82-.2-.72l-6.15,1.3c-.47.1-.27.82.2.72Z" fill="#f2f2f2"/><line x1="184.24" y1="52.05" x2="190.39" y2="50.75" fill="#fff"/><path d="M184.34,52.41l6.15-1.3c.47-.1.27-.82-.2-.72l-6.15,1.3c-.47.1-.27.82.2.72Z" fill="#f2f2f2"/><path d="M229.49,94.89c-9.37,5.87-23.26,12.48-33.15,17.76l15.23,11.63,28.34-20C234.51,101.65,233.72,99.08,229.49,94.89Z" fill="url(#linear-gradient-4)" style="mix-blend-mode:multiply"/><path d="M231.47,91.65c-3.24-.28-6.66-1.26-9.05-3.48v9.61a10,10,0,0,0,10,10h0a10,10,0,0,0,10-10V88C239,89.4,235.1,92,231.47,91.65Z" fill="#c24327"/><ellipse cx="232.39" cy="88.11" rx="9.98" ry="5.29" fill="#5ed18d"/><path d="M232.39,89s-6.78-1-8.58-12C223.81,77,229.6,80.23,232.39,89Z" fill="#5ed18d"/><path d="M233.39,87.61s-7.78-14,0-23.34A39.13,39.13,0,0,1,233.39,87.61Z" fill="#5ed18d"/><path d="M232.39,78.83s-6.78-1-8.58-12C223.81,66.86,229.6,70.05,232.39,78.83Z" fill="#5ed18d"/><path d="M233.22,83.3s-1.7-6.64,7.73-12.54C240.95,70.77,240.24,77.34,233.22,83.3Z" fill="#5ed18d"/><ellipse cx="232.39" cy="88.11" rx="9.98" ry="5.29" fill="#146666"/><path d="M232.39,89s-6.78-1-8.58-12C223.81,77,229.6,80.23,232.39,89Z" fill="#5ed18d"/><path d="M233.39,87.61s-7.78-14,0-23.34A39.13,39.13,0,0,1,233.39,87.61Z" fill="#5ed18d"/><path d="M232.39,78.83s-6.78-1-8.58-12C223.81,66.86,229.6,70.05,232.39,78.83Z" fill="#5ed18d"/><path d="M233.22,83.3s-1.7-6.64,7.73-12.54C240.95,70.77,240.24,77.34,233.22,83.3Z" fill="#5ed18d"/></g></g></svg>